<?xml version="1.0" encoding="UTF-8" standalone="no"?>
<svg
   xmlns:dc="http://purl.org/dc/elements/1.1/"
   xmlns:cc="http://creativecommons.org/ns#"
   xmlns:rdf="http://www.w3.org/1999/02/22-rdf-syntax-ns#"
   xmlns:svg="http://www.w3.org/2000/svg"
   xmlns="http://www.w3.org/2000/svg"
   xmlns:sodipodi="http://sodipodi.sourceforge.net/DTD/sodipodi-0.dtd"
   xmlns:inkscape="http://www.inkscape.org/namespaces/inkscape"
   viewBox="0 0 129.89786 38.488255"
   version="1.1"
   id="svg68"
   sodipodi:docname="google-play.svg"
   width="129.89786"
   height="38.488255"
   inkscape:version="0.92.1 r15371">
  <metadata
     id="metadata72">
    <rdf:RDF>
      <cc:Work
         rdf:about="">
        <dc:format>image/svg+xml</dc:format>
        <dc:type
           rdf:resource="http://purl.org/dc/dcmitype/StillImage" />
        <dc:title>fil_get</dc:title>
      </cc:Work>
    </rdf:RDF>
  </metadata>
  <sodipodi:namedview
     pagecolor="#ffffff"
     bordercolor="#666666"
     borderopacity="1"
     objecttolerance="10"
     gridtolerance="10"
     guidetolerance="10"
     inkscape:pageopacity="0"
     inkscape:pageshadow="2"
     inkscape:window-width="1920"
     inkscape:window-height="1017"
     id="namedview70"
     showgrid="false"
     fit-margin-top="0"
     fit-margin-left="0"
     fit-margin-right="0"
     fit-margin-bottom="0"
     inkscape:zoom="5.2918959"
     inkscape:cx="74.756031"
     inkscape:cy="-8.8338434"
     inkscape:window-x="-8"
     inkscape:window-y="-8"
     inkscape:window-maximized="1"
     inkscape:current-layer="svg68" />
  <defs
     id="defs40">
    <linearGradient
       id="a"
       x1="31.799999"
       y1="183.28999"
       x2="15.02"
       y2="166.50999"
       gradientTransform="matrix(0.96220636,0,0,-0.96220636,-9.6220636,184.74362)"
       gradientUnits="userSpaceOnUse">
      <stop
         offset="0"
         stop-color="#00a0ff"
         id="stop2" />
      <stop
         offset=".01"
         stop-color="#00a1ff"
         id="stop4" />
      <stop
         offset=".26"
         stop-color="#00beff"
         id="stop6" />
      <stop
         offset=".51"
         stop-color="#00d2ff"
         id="stop8" />
      <stop
         offset=".76"
         stop-color="#00dfff"
         id="stop10" />
      <stop
         offset="1"
         stop-color="#00e3ff"
         id="stop12" />
    </linearGradient>
    <linearGradient
       id="b"
       x1="43.830002"
       y1="172"
       x2="19.639999"
       y2="172"
       gradientTransform="matrix(0.96220636,0,0,-0.96220636,-9.6220636,184.74362)"
       gradientUnits="userSpaceOnUse">
      <stop
         offset="0"
         stop-color="#ffe000"
         id="stop15" />
      <stop
         offset=".41"
         stop-color="#ffbd00"
         id="stop17" />
      <stop
         offset=".78"
         stop-color="orange"
         id="stop19" />
      <stop
         offset="1"
         stop-color="#ff9c00"
         id="stop21" />
    </linearGradient>
    <linearGradient
       id="c"
       x1="34.830002"
       y1="169.7"
       x2="12.07"
       y2="146.95"
       gradientTransform="matrix(0.96220636,0,0,-0.96220636,-9.6220636,184.74362)"
       gradientUnits="userSpaceOnUse">
      <stop
         offset="0"
         stop-color="#ff3a44"
         id="stop24" />
      <stop
         offset="1"
         stop-color="#c31162"
         id="stop26" />
    </linearGradient>
    <linearGradient
       id="d"
       x1="17.299999"
       y1="191.82001"
       x2="27.459999"
       y2="181.66"
       gradientTransform="matrix(0.96220636,0,0,-0.96220636,-9.6220636,184.74362)"
       gradientUnits="userSpaceOnUse">
      <stop
         offset="0"
         stop-color="#32a071"
         id="stop29" />
      <stop
         offset=".07"
         stop-color="#2da771"
         id="stop31" />
      <stop
         offset=".48"
         stop-color="#15cf74"
         id="stop33" />
      <stop
         offset=".8"
         stop-color="#06e775"
         id="stop35" />
      <stop
         offset="1"
         stop-color="#00f076"
         id="stop37" />
    </linearGradient>
  </defs>
  <title
     id="title42">fil_get</title>
  <path
     d="M -10,-10 H 145 V 50 H -10 Z"
     id="path44"
     inkscape:connector-curvature="0"
     style="fill:none" />
  <rect
     x="0"
     y="0"
     width="129.89786"
     height="38.488255"
     rx="4.8110318"
     ry="4.8110318"
     id="rect46"
     style="stroke-width:0.96220636" />
  <path
     d="m 125.08683,0.769765 a 4.0412667,4.0412667 0 0 1 4.04126,4.041267 v 28.866191 a 4.0412667,4.0412667 0 0 1 -4.04126,4.041266 H 4.811032 A 4.0412667,4.0412667 0 0 1 0.769765,33.677223 V 4.811032 A 4.0412667,4.0412667 0 0 1 4.811032,0.769765 H 125.08683 M 125.08683,0 H 4.811032 A 4.8110318,4.8110318 0 0 0 0,4.811032 v 28.866191 a 4.8110318,4.8110318 0 0 0 4.811032,4.811031 H 125.08683 a 4.8110318,4.8110318 0 0 0 4.81103,-4.811031 V 4.811032 A 4.8110318,4.8110318 0 0 0 125.08683,0 Z"
     id="path48"
     inkscape:connector-curvature="0"
     style="fill:#a6a6a6;stroke-width:0.96220636" />
  <path
     d="m 45.627826,9.852993 a 2.6075792,2.6075792 0 0 1 -0.721655,1.924413 2.8000205,2.8000205 0 0 1 -2.116854,0.856364 3.03095,3.03095 0 0 1 -2.126476,-5.167049 2.8866191,2.8866191 0 0 1 2.126476,-0.865985 2.9828397,2.9828397 0 0 1 1.183514,0.240551 2.3766497,2.3766497 0 0 1 0.904474,0.644678 l -0.50997,0.50997 a 1.9244127,1.9244127 0 0 0 -1.578018,-0.683167 2.2323188,2.2323188 0 0 0 -2.241941,2.309296 2.270807,2.270807 0 0 0 3.848826,1.664617 1.81857,1.81857 0 0 0 0.481103,-1.173892 H 42.789317 V 9.42 h 2.80002 a 2.4440042,2.4440042 0 0 1 0.03849,0.432993 z m 4.406905,-2.405516 h -2.597957 v 1.828192 h 2.367027 v 0.692789 h -2.367027 v 1.828192 h 2.597957 v 0.712033 H 46.667009 V 6.735444 h 3.367722 z m 3.156037,5.061206 H 52.449869 V 7.447477 H 50.833362 V 6.735444 h 4.012401 v 0.712033 h -1.654995 z m 4.483881,0 V 6.735444 h 0.740899 v 5.773239 z m 4.031645,0 H 60.965395 V 7.447477 H 59.348888 V 6.735444 h 3.964291 v 0.712033 h -1.606885 z m 9.121716,-0.750521 a 3.0020838,3.0020838 0 0 1 -4.233708,0 3.1175486,3.1175486 0 0 1 0,-4.281819 2.9828397,2.9828397 0 0 1 4.233708,0 3.1079265,3.1079265 0 0 1 0,4.281819 z m -3.68525,-0.481103 a 2.2226967,2.2226967 0 0 0 3.136793,0 2.4632483,2.4632483 0 0 0 0,-3.30999 2.2226967,2.2226967 0 0 0 -3.136793,0 2.4632483,2.4632483 0 0 0 0,3.30999 z m 5.580797,1.231624 V 6.735444 h 0.904474 l 2.809642,4.493504 V 6.735444 h 0.740899 v 5.773239 H 76.408807 L 73.474078,7.803494 v 4.705189 z"
     stroke-miterlimit="10"
     id="path50"
     inkscape:connector-curvature="0"
     style="fill:#ffffff;stroke:#ffffff;stroke-width:0.19244127;stroke-miterlimit:10" />
  <path
     d="m 65.564741,20.927988 a 4.089377,4.089377 0 1 0 4.108622,4.089377 4.0316447,4.0316447 0 0 0 -4.108622,-4.089377 z m 0,6.57187 a 2.4824924,2.4824924 0 1 1 2.309296,-2.482493 2.3670276,2.3670276 0 0 1 -2.309296,2.482493 z M 56.6066,20.927988 a 4.089377,4.089377 0 1 0 4.098999,4.089377 4.0316447,4.0316447 0 0 0 -4.108621,-4.089377 z m 0,6.57187 a 2.4824924,2.4824924 0 1 1 2.299673,-2.482493 2.3670276,2.3670276 0 0 1 -2.309295,2.482493 z M 45.935732,22.188479 v 1.731971 h 4.156731 a 3.627518,3.627518 0 0 1 -0.962206,2.184209 4.2529521,4.2529521 0 0 1 -3.204147,1.270112 4.6185905,4.6185905 0 0 1 0,-9.237181 4.4261493,4.4261493 0 0 1 3.146414,1.241246 l 1.222003,-1.222002 a 6.052278,6.052278 0 0 0 -4.358795,-1.799326 6.3601841,6.3601841 0 1 0 0,12.710746 5.7732382,5.7732382 0 0 0 4.435771,-1.780082 5.7732382,5.7732382 0 0 0 1.501042,-4.06051 5.6481513,5.6481513 0 0 0 -0.09622,-1.087294 z m 43.59757,1.347089 a 3.8488254,3.8488254 0 0 0 -3.502431,-2.60758 3.8488254,3.8488254 0 0 0 -3.848826,4.089377 4.0027785,4.0027785 0 0 0 4.060511,4.089377 4.0701329,4.0701329 0 0 0 3.406211,-1.808948 l -1.3952,-0.962206 a 2.3381615,2.3381615 0 0 1 -2.011011,1.135404 2.0783657,2.0783657 0 0 1 -1.982145,-1.241247 l 5.474954,-2.261185 z m -5.580797,1.366333 a 2.2419408,2.2419408 0 0 1 2.136098,-2.386272 1.5876405,1.5876405 0 0 1 1.520286,0.865986 z m -4.445393,3.96429 h 1.799326 V 16.838611 H 79.507112 Z M 76.56276,21.842084 h -0.06735 a 2.8866191,2.8866191 0 0 0 -2.155342,-0.962206 4.0989991,4.0989991 0 0 0 0,8.188376 2.7903984,2.7903984 0 0 0 2.155342,-0.962206 h 0.05773 v 0.586946 c 0,1.568396 -0.837119,2.405516 -2.184208,2.405516 A 2.2611849,2.2611849 0 0 1 72.30981,29.645578 l -1.568396,0.6543 a 3.8969358,3.8969358 0 0 0 3.627518,2.415138 c 2.107232,0 3.848825,-1.241246 3.848825,-4.262574 V 21.16854 H 76.56276 Z m -2.059121,5.657774 a 2.4921145,2.4921145 0 0 1 0,-4.964985 2.3092953,2.3092953 0 0 1 2.184208,2.482492 2.2900511,2.2900511 0 0 1 -2.19383,2.482493 z M 97.96223,16.838611 h -4.30106 v 12.02758 h 1.79932 v -4.560858 h 2.51136 a 3.7429827,3.7429827 0 1 0 0,-7.466722 z m 0,5.773238 H 95.45087 V 18.51285 h 2.54985 a 2.063933,2.063933 0 1 1 0,4.127866 z m 11.09424,-1.731971 a 3.3677223,3.3677223 0 0 0 -3.20415,1.837814 l 1.59726,0.663923 a 1.7031053,1.7031053 0 0 1 1.63576,-0.88523 1.7319715,1.7319715 0 0 1 1.92441,1.549152 v 0.125087 a 3.9739123,3.9739123 0 0 0 -1.8763,-0.461859 c -1.72235,0 -3.46395,0.962206 -3.46395,2.7038 a 2.7807764,2.7807764 0 0 0 2.98284,2.646067 2.5306027,2.5306027 0 0 0 2.3093,-1.154648 h 0.0577 v 0.962207 h 1.73197 v -4.628213 c 0,-2.107232 -1.59726,-3.329234 -3.64676,-3.329234 z m -0.22131,6.591114 c -0.58694,0 -1.40482,-0.298284 -1.40482,-1.019939 0,-0.962206 1.01994,-1.279735 1.92441,-1.279735 a 3.1945251,3.1945251 0 0 1 1.63575,0.404127 2.1745864,2.1745864 0 0 1 -2.10723,1.924413 z m 10.22826,-6.302452 -2.05913,5.215158 h -0.0577 l -2.1361,-5.215158 h -1.92441 l 3.20415,7.293524 -1.82819,4.050889 h 1.8763 L 121.0648,21.16854 Z m -16.17469,7.697651 h 1.79932 v -12.02758 h -1.79932 z"
     id="path52"
     inkscape:connector-curvature="0"
     style="fill:#ffffff;stroke-width:0.96220636" />
  <path
     d="M 10.045434,7.255036 A 1.9244127,1.9244127 0 0 0 9.60282,8.602125 V 29.88613 a 1.9244127,1.9244127 0 0 0 0.442614,1.347088 l 0.06735,0.06735 11.921737,-11.912115 v -0.27904 L 10.112789,7.187681 Z"
     id="path54"
     inkscape:connector-curvature="0"
     style="fill:url(#a);stroke-width:0.96220636" />
  <path
     d="m 25.979572,23.36237 -3.945046,-3.973912 v -0.27904 l 3.945046,-3.983534 0.0866,0.04811 4.724434,2.684556 c 1.347088,0.760143 1.347088,2.011011 0,2.780776 l -4.70519,2.674934 z"
     id="path56"
     inkscape:connector-curvature="0"
     style="fill:url(#b);stroke-width:0.96220636" />
  <path
     d="M 26.095037,23.304638 22.034526,19.244127 10.045434,31.233218 a 1.5683964,1.5683964 0 0 0 2.00139,0.05773 l 14.057835,-7.986313"
     id="path58"
     inkscape:connector-curvature="0"
     style="fill:url(#c);stroke-width:0.96220636" />
  <path
     d="M 26.095037,15.183616 12.037202,7.197304 a 1.5683964,1.5683964 0 0 0 -2.00139,0.05773 l 11.998714,11.989091 z"
     id="path60"
     inkscape:connector-curvature="0"
     style="fill:url(#d);stroke-width:0.96220636" />
  <path
     d="m 25.979572,23.21804 -13.94237,7.938202 a 1.6068846,1.6068846 0 0 1 -1.924413,0 l -0.06735,0.06735 0.06735,0.06735 a 1.5972626,1.5972626 0 0 0 1.924413,0 l 14.057835,-7.986313 z"
     style="opacity:0.2;isolation:isolate;stroke-width:0.96220636"
     id="path62"
     inkscape:connector-curvature="0" />
  <path
     d="M 10.045434,31.09851 A 1.9244127,1.9244127 0 0 1 9.60282,29.751421 v 0.144331 a 1.9244127,1.9244127 0 0 0 0.442614,1.347089 l 0.06735,-0.06735 z m 20.74517,-10.603514 -4.811032,2.723044 0.0866,0.0866 4.724434,-2.674934 a 1.6838611,1.6838611 0 0 0 0.962206,-1.385577 1.7897038,1.7897038 0 0 1 -0.962206,1.250869 z"
     style="opacity:0.12000002;isolation:isolate;stroke-width:0.96220636"
     id="path64"
     inkscape:connector-curvature="0" />
  <path
     d="M 12.037202,7.332012 30.790604,17.993259 A 1.7897038,1.7897038 0 0 1 31.75281,19.244127 1.6838611,1.6838611 0 0 0 30.790604,17.85855 L 12.037202,7.197304 C 10.690113,6.437161 9.593197,7.072217 9.593197,8.611747 v 0.144331 c 0.02887,-1.549152 1.106538,-2.184209 2.444005,-1.424066 z"
     style="opacity:0.25;isolation:isolate;fill:#ffffff;stroke-width:0.96220636"
     id="path66"
     inkscape:connector-curvature="0" />
</svg>
